<svg viewBox="0 0 14.6067 14.6067" xmlns="http://www.w3.org/2000/svg" xmlns:xlink="http://www.w3.org/1999/xlink" width="14.606689" height="14.606689" fill="none">
	<rect id="maps-and-flags 1" width="14.606737" height="14.606737" x="0.000000" y="0.000000" fill="rgb(255,255,255)" fill-opacity="0" />
	<g id="Group">
		<g id="Group">
			<path id="Vector" d="M7.3049 0.000854492C4.38797 0.000854492 2.01489 2.37394 2.01489 5.29083C2.01489 8.91079 6.74893 14.2251 6.95049 14.4496C7.1398 14.6604 7.47034 14.6601 7.65931 14.4496C7.86087 14.2251 12.5949 8.91079 12.5949 5.29083C12.5948 2.37394 10.2218 0.000854492 7.3049 0.000854492ZM7.3049 7.95237C5.83732 7.95237 4.64339 6.75841 4.64339 5.29083C4.64339 3.82326 5.83735 2.62933 7.3049 2.62933C8.77245 2.62933 9.96638 3.82328 9.96638 5.29086C9.96638 6.75844 8.77245 7.95237 7.3049 7.95237Z" fill="rgb(255,255,255)" fill-rule="nonzero" />
		</g>
	</g>
</svg>
