<svg viewBox="0 0 31.9136 61" xmlns="http://www.w3.org/2000/svg" xmlns:xlink="http://www.w3.org/1999/xlink" width="31.913574" height="61.000000" fill="none" customFrame="#000000">
	<path id="Vector" d="M31.2402 28.8261L3.90866 0.689809C3.01317 -0.231502 1.56336 -0.229953 0.669368 0.694574C-0.223927 1.61898 -0.221618 3.11646 0.673985 4.03848L26.3787 30.5001L0.673061 56.9616C-0.222427 57.8838 -0.224735 59.3803 0.668444 60.3048C1.11659 60.7683 1.7037 61 2.2908 61C2.87641 61 3.4612 60.7698 3.90854 60.3096L31.2402 32.174C31.6715 31.7311 31.9136 31.1282 31.9136 30.5001C31.9136 29.872 31.6709 29.2699 31.2402 28.8261Z" fill="rgb(255,255,255)" fill-rule="nonzero" transform="matrix(-1,-1.2642e-16,1.18633e-16,-1,31.9136,61)" />
</svg>
