<svg viewBox="0 0 20 20" xmlns="http://www.w3.org/2000/svg" xmlns:xlink="http://www.w3.org/1999/xlink" width="20.000000" height="20.000000" fill="none">
	<rect id="callback 1" width="20.000000" height="20.000000" x="0.000000" y="0.000000" fill="rgb(255,255,255)" fill-opacity="0" />
	<g id="Group">
		<g id="Group">
			<path id="Vector" d="M12.5579 18.9633C11.9674 18.9633 11.3844 18.7948 10.8857 18.4756C6.54331 15.6963 2.91579 11.8523 0.395448 7.35923C-0.285023 6.14611 -0.0721436 4.61072 0.913162 3.62545L2.84405 1.69456C3.60217 0.936447 4.83566 0.936447 5.59377 1.69456L7.29552 3.39631C8.05364 4.15439 8.05364 5.38792 7.29552 6.14599L6.28938 7.15214C7.73324 9.17021 9.45301 10.9602 11.4111 12.4832L12.522 11.3724C13.2801 10.6143 14.5135 10.6143 15.2716 11.3724L16.9758 13.0766C17.732 13.8328 17.7336 15.0648 16.9794 15.8228L14.7727 18.0407C14.2729 18.5431 13.6102 18.8638 12.9067 18.9436C12.7905 18.9567 12.674 18.9633 12.5579 18.9633Z" fill="rgb(49,44,33)" fill-rule="nonzero" />
		</g>
		<g id="Group">
			<path id="Vector" d="M17.927 2.00834L11.8695 2.00834C12.0274 1.8247 12.061 1.5547 11.9331 1.33311C11.7711 1.05259 11.4125 0.956531 11.132 1.11847L9.4546 2.08688C9.27315 2.19162 9.16138 2.38523 9.16138 2.59475C9.16138 2.80426 9.27315 2.99787 9.4546 3.10261L11.132 4.07102C11.2243 4.12435 11.3252 4.14968 11.4247 4.14968C11.6273 4.14968 11.8245 4.04452 11.9331 3.85638C12.061 3.63479 12.0273 3.36483 11.8695 3.18119L17.927 3.18119C18.423 3.18119 18.8264 3.58463 18.8264 4.08056C18.8264 4.5765 18.423 4.97993 17.927 4.97993L13.1157 4.97993C12.7918 4.97993 12.5293 5.2425 12.5293 5.56638C12.5293 5.89025 12.7918 6.15282 13.1157 6.15282L17.927 6.15282C19.0697 6.15282 19.9993 5.22323 19.9993 4.08056C19.9993 2.93793 19.0697 2.00834 17.927 2.00834Z" fill="rgb(49,44,33)" fill-rule="nonzero" />
		</g>
	</g>
</svg>
