<svg viewBox="0 0 267 267" xmlns="http://www.w3.org/2000/svg" xmlns:xlink="http://www.w3.org/1999/xlink" width="267.000000" height="267.000000" fill="none">
	<rect id="noun-truck-1484253 1" width="267.000000" height="267.000000" x="0.000000" y="0.000000" fill="rgb(255,255,255)" fill-opacity="0" />
	<g id="Group">
		<path id="Vector" d="M232.068 156.327L232.068 130.272C232.061 125.232 230.136 120.385 226.684 116.713L206.181 94.9547C202.42 91.0164 197.205 88.7983 191.758 88.8177L150.865 88.8177L150.865 73.2256L59.8953 73.2256C57.0894 73.2256 54.3964 74.3386 52.4099 76.3194C50.4232 78.3023 49.3024 80.9914 49.2946 83.7974L49.2946 94.3982L26.1702 94.3982C23.5842 94.3982 21.1927 95.7778 19.9007 98.0175C18.6067 100.257 18.6067 103.016 19.9007 105.256C21.1927 107.496 23.5841 108.875 26.1702 108.875L80.2028 108.875C83.5185 109.111 86.4624 111.072 87.9568 114.039C89.4512 117.007 89.2722 120.542 87.4878 123.344C85.7035 126.146 82.5765 127.802 79.2552 127.705L58.4735 127.705L58.4735 127.872L44.2747 127.872C41.5505 128.034 39.1006 129.581 37.7835 131.97C36.4662 134.36 36.4662 137.257 37.7835 139.647C39.1008 142.036 41.5506 143.583 44.2747 143.745L72.1702 143.745C74.8127 144.192 77.0504 145.947 78.1169 148.407C79.1813 150.866 78.9303 153.699 77.4495 155.933C75.9668 158.169 73.4567 159.502 70.7755 159.476L58.4741 159.476L58.4741 166.145C56.6664 166.818 55.4678 168.54 55.46 170.469L55.46 178.363L78.3353 178.363C78.1232 172.461 80.3201 166.727 84.422 162.477C88.5219 158.225 94.1745 155.826 100.08 155.826C105.986 155.826 111.639 158.225 115.739 162.477C119.839 166.727 122.036 172.461 121.825 178.363L174.408 178.363C174.198 172.461 176.393 166.727 180.495 162.477C184.595 158.225 190.248 155.826 196.154 155.826C202.059 155.826 207.712 158.225 211.812 162.477C215.914 166.727 218.111 172.461 217.899 178.363L235.862 178.363L235.862 160.872C235.86 158.64 234.265 156.729 232.07 156.327L232.068 156.327ZM204.731 125.641L169.247 125.641C166.844 125.641 164.896 123.693 164.896 121.29L164.896 106.784C164.896 104.381 166.844 102.431 169.247 102.431L191.062 102.431C192.269 102.435 193.42 102.941 194.242 103.826L207.798 118.47L207.798 118.472C208.958 119.719 209.281 121.529 208.627 123.103C207.971 124.675 206.461 125.72 204.759 125.781L204.731 125.641Z" fill="rgb(255,197,1)" fill-opacity="0.100000001" fill-rule="nonzero" />
		<path id="Vector" d="M196.138 163.047C192.077 163.047 188.181 164.662 185.309 167.534C182.438 170.406 180.822 174.301 180.822 178.362C180.822 182.423 182.437 186.319 185.309 189.191C188.181 192.063 192.077 193.676 196.138 193.676C200.198 193.676 204.094 192.063 206.966 189.191C209.838 186.319 211.451 182.423 211.451 178.362C211.451 174.301 209.838 170.405 206.966 167.534C204.094 164.662 200.198 163.047 196.138 163.047ZM196.138 185.698C194.192 185.698 192.326 184.926 190.95 183.55C189.574 182.174 188.802 180.308 188.802 178.363C188.802 176.417 189.574 174.551 190.95 173.175C192.326 171.799 194.192 171.027 196.138 171.027C198.084 171.027 199.95 171.799 201.325 173.175C202.701 174.551 203.473 176.417 203.473 178.363C203.473 180.308 202.701 182.174 201.325 183.55C199.95 184.926 198.084 185.698 196.138 185.698Z" fill="rgb(255,197,1)" fill-opacity="0.100000001" fill-rule="nonzero" />
		<path id="Vector" d="M100.068 163.047C96.007 163.054 92.1172 164.673 89.2489 167.549C86.3827 170.425 84.7754 174.321 84.7813 178.38C84.7852 182.441 86.4021 186.332 89.2761 189.201C92.1501 192.069 96.0438 193.68 100.105 193.676C104.164 193.674 108.057 192.059 110.928 189.189C113.798 186.317 115.411 182.423 115.411 178.363C115.411 174.296 113.792 170.396 110.914 167.524C108.036 164.65 104.135 163.041 100.068 163.047L100.068 163.047ZM100.068 185.698C98.1221 185.698 96.256 184.926 94.8803 183.55C93.5046 182.174 92.7302 180.308 92.7302 178.363C92.7302 176.417 93.5046 174.551 94.8803 173.175C96.256 171.799 98.1221 171.027 100.068 171.027C102.014 171.027 103.88 171.799 105.255 173.175C106.631 174.551 107.404 176.417 107.404 178.363C107.404 180.308 106.631 182.174 105.255 183.55C103.88 184.926 102.014 185.698 100.068 185.698Z" fill="rgb(255,197,1)" fill-opacity="0.100000001" fill-rule="nonzero" />
	</g>
</svg>
