<svg viewBox="0 0 256 256" xmlns="http://www.w3.org/2000/svg" xmlns:xlink="http://www.w3.org/1999/xlink" width="256.000000" height="256.000000" fill="none">
	<rect id="noun-like-4642630 1" width="256.000000" height="256.000000" x="0.000000" y="0.000000" fill="rgb(255,255,255)" fill-opacity="0" />
	<g id="Group">
		<path id="Vector" d="M206.465 174.303L162.379 174.303C158.68 174.303 158.676 179.93 162.379 179.93L190.059 179.93C197.152 179.93 202.92 185.699 202.92 192.795C202.92 199.89 197.154 205.66 190.059 205.66L66.1182 205.66L66.1182 101.904L69.5768 101.894C77.711 101.871 84.1424 98.6666 88.7782 91.9609C96.8254 80.3239 97.7982 78.1566 109.744 70.3465C123.502 61.3544 129.222 45.6684 132.672 35.3333C135.011 28.3274 142.194 22.1717 147.285 27.5229C156.472 37.179 152.669 68.6875 141.821 81.2118C140.251 83.0247 141.548 85.8688 143.948 85.8688L203.285 85.8688C210.381 85.8688 216.147 91.6347 216.147 98.7303C216.147 105.823 210.378 111.592 203.285 111.592L162.38 111.592C158.677 111.592 158.682 117.219 162.38 117.219L211.861 117.219C218.954 117.219 224.723 122.989 224.723 130.083C224.723 137.176 218.953 142.945 211.861 142.945L162.38 142.946C158.679 142.946 158.679 148.573 162.38 148.573L206.471 148.573C213.564 148.573 219.332 154.342 219.332 161.438C219.332 168.534 213.564 174.302 206.469 174.302L206.465 174.303ZM30.6483 101.954L53.9867 101.91L53.9867 205.659L30.6483 205.659L30.6483 101.954Z" fill="rgb(255,197,1)" fill-opacity="0.100000001" fill-rule="evenodd" />
	</g>
</svg>
