<svg viewBox="0 0 244.13 243.881" xmlns="http://www.w3.org/2000/svg" xmlns:xlink="http://www.w3.org/1999/xlink" width="244.130127" height="243.881104" fill="none" customFrame="#000000">
	<g id="Group">
		<path id="Vector" d="M143.892 107.184L137.937 107.184C131.238 113.387 120.571 117.357 108.414 117.357C96.257 117.357 85.5895 113.387 78.8906 107.184L74.6733 107.184C53.0899 107.184 35.4751 120.333 35.4751 136.708L181.352 136.708C181.352 120.583 164.483 107.184 143.891 107.184L143.892 107.184Z" fill="rgb(255,197,1)" fill-opacity="0.100000001" fill-rule="nonzero" />
		<path id="Vector" d="M108.416 22.0897C84.1037 22.0897 64.5037 41.688 64.5037 66.0021C64.5037 90.3145 84.1019 109.914 108.416 109.914C132.728 109.914 152.328 90.3163 152.328 66.0021C152.079 41.688 132.479 22.0897 108.416 22.0897ZM108.416 99.99C89.5616 99.99 74.4281 84.6089 74.4281 66.0021C74.4281 63.0256 74.9248 60.2965 75.4198 57.8151C79.3896 59.8001 86.5834 62.5293 95.018 62.5293C100.973 62.5293 107.422 61.041 113.377 56.8237C114.121 56.327 129.007 45.66 140.915 56.327C141.907 59.3035 142.403 62.7769 142.403 66.0025C142.403 84.6093 127.022 99.9904 108.415 99.9904L108.416 99.99Z" fill="rgb(255,197,1)" fill-opacity="0.100000001" fill-rule="nonzero" />
		<path id="Vector" d="M211.371 239.169L187.306 239.169C188.794 237.184 189.788 234.704 189.788 231.975L189.788 153.331C189.788 146.632 184.33 141.423 177.88 141.423L38.9495 141.423C32.2506 141.423 27.0416 146.881 27.0416 153.331L27.0416 231.975C27.0416 234.704 28.0332 237.186 29.5232 239.169L2.23241 239.169C0.991607 239.169 0 240.16 0 241.401L0 241.649C0 242.89 0.991607 243.881 2.23241 243.881L211.372 243.881C212.613 243.881 213.605 242.89 213.605 241.649L213.605 241.401C213.605 240.162 212.613 239.171 211.372 239.171L211.371 239.169ZM108.414 205.429C100.97 205.429 95.0176 199.474 95.0176 192.033C95.0176 184.59 100.972 178.637 108.414 178.637C115.857 178.637 121.81 184.591 121.81 192.033C121.81 199.474 115.855 205.429 108.414 205.429Z" fill="rgb(255,197,1)" fill-opacity="0.100000001" fill-rule="nonzero" />
		<path id="Vector" d="M202.439 42.4334L199.213 39.2094L195.74 42.6826L202.191 48.8849L202.438 49.3815L212.858 38.9604L213.355 38.4655L209.882 34.9923L202.439 42.4334Z" fill="rgb(255,197,1)" fill-opacity="0.100000001" fill-rule="nonzero" />
		<path id="Vector" d="M242.879 30.2774C237.421 8.69403 215.588 -4.2071 194.005 1.25089C172.422 6.70887 159.521 28.5417 164.979 50.1246C167.708 60.2968 173.91 68.4837 182.097 73.9422L171.429 90.0671L213.853 79.1507C235.436 73.6927 248.337 51.8599 242.879 30.277L242.879 30.2774ZM221.79 42.1853C220.302 48.8842 216.333 57.8154 204.921 63.0244L203.93 63.5211L202.938 63.0244C191.525 58.0631 187.557 49.1318 186.069 42.1853C184.581 35.2388 185.572 29.5332 185.821 28.7893L186.318 26.5569L188.8 26.5569C190.288 26.5569 198.227 26.3095 201.948 20.3547L204.181 16.8815L206.161 20.6021C209.634 26.3078 217.821 26.8044 219.309 26.8044L221.791 26.8044L222.288 29.0368C222.288 29.5335 223.279 35.2391 221.791 42.1856L221.79 42.1853Z" fill="rgb(255,197,1)" fill-opacity="0.100000001" fill-rule="nonzero" />
	</g>
</svg>
