<svg viewBox="0 0 258 258" xmlns="http://www.w3.org/2000/svg" xmlns:xlink="http://www.w3.org/1999/xlink" width="258.000000" height="258.000000" fill="none">
	<rect id="noun-warehouse-4641301 1" width="258.000000" height="258.000000" x="0.000000" y="0.000122" fill="rgb(255,255,255)" fill-opacity="0" />
	<g id="Group">
		<path id="Vector" d="M248.02 222.891L235.974 222.891L235.974 72.5779C235.974 70.4829 234.926 68.3879 232.831 67.8642L131.224 24.3929C129.652 23.8692 128.605 23.8692 127.034 24.3929L25.4263 67.8642C23.3313 68.9117 22.2838 70.4829 22.2838 72.5779L22.2838 222.891L10.2375 222.891C7.61875 222.891 5 225.51 5 228.129C5 230.747 7.61875 233.366 10.2375 233.366L46.9 233.366L46.9 87.2429C46.9 84.6242 49.5187 82.0054 52.1375 82.0054L206.12 82.0054C208.739 82.0054 211.357 84.6242 211.357 87.2429L211.357 233.366L248.02 233.366C250.639 233.366 253.257 230.747 253.257 228.129C253.257 225.51 251.162 222.891 248.02 222.891Z" fill="rgb(255,197,1)" fill-opacity="0.100000001" fill-rule="nonzero" />
		<path id="Vector" d="M118.656 174.706L99.8011 174.706L99.8011 195.656C99.8011 198.275 97.7061 200.894 94.5636 200.894C91.9449 200.894 89.3261 198.275 89.3261 195.656L89.3261 174.706L70.4711 174.706C67.8524 174.706 65.2336 177.325 65.2336 179.944L65.2336 228.129C65.2336 230.747 67.8524 233.366 70.4711 233.366L118.656 233.366C121.275 233.366 123.894 230.747 123.894 228.129L123.894 179.944C123.894 176.801 121.799 174.706 118.656 174.706Z" fill="rgb(255,197,1)" fill-opacity="0.100000001" fill-rule="nonzero" />
		<path id="Vector" d="M187.792 174.706L168.937 174.706L168.937 195.656C168.937 198.275 166.318 200.894 163.699 200.894C161.08 200.894 158.462 198.275 158.462 195.656L158.462 174.706L139.607 174.706C136.464 174.706 134.369 177.325 134.369 179.944L134.369 228.129C134.369 230.747 136.464 233.366 139.607 233.366L187.792 233.366C190.41 233.366 193.029 230.747 193.029 228.129L193.029 179.944C193.029 176.801 190.934 174.706 187.792 174.706Z" fill="rgb(255,197,1)" fill-opacity="0.100000001" fill-rule="nonzero" />
		<path id="Vector" d="M152.704 105.571L133.849 105.571L133.849 126.521C133.849 129.14 131.23 131.759 128.611 131.759C125.993 131.759 123.374 129.14 123.374 126.521L123.374 105.571L104.519 105.571C101.376 105.571 99.2812 108.19 99.2812 110.809L99.2812 158.994C99.2812 161.612 101.376 164.231 104.519 164.231L152.704 164.231C155.323 164.231 157.941 161.612 157.941 158.994L157.941 110.809C157.941 107.666 155.846 105.571 152.704 105.571Z" fill="rgb(255,197,1)" fill-opacity="0.100000001" fill-rule="nonzero" />
	</g>
</svg>
