<svg viewBox="0 0 231 231" xmlns="http://www.w3.org/2000/svg" xmlns:xlink="http://www.w3.org/1999/xlink" width="231.000000" height="231.000000" fill="none">
	<rect id="noun-analytics-1254236 1" width="231.000000" height="231.000000" x="0.000000" y="0.000000" fill="rgb(255,255,255)" fill-opacity="0" />
	<g id="Group">
		<path id="Vector" d="M128.913 108.003L111.476 108.003C103.664 108.003 97.3407 114.326 97.3407 122.138L97.3407 222.854C97.3407 225.411 99.4338 227.505 101.991 227.505L138.4 227.505C140.957 227.505 143.05 225.412 143.05 222.854L143.049 122.138C143.049 114.326 136.724 108.003 128.913 108.003L128.913 108.003Z" fill="rgb(255,197,1)" fill-opacity="0.100000001" fill-rule="nonzero" />
		<path id="Vector" d="M204.516 49.3247L185.08 49.3247C177.267 49.3247 170.944 55.6951 170.944 63.4602L170.944 222.859C170.944 225.416 172.99 227.509 175.594 227.509L214.002 227.509C216.559 227.509 218.652 225.416 218.652 222.859L218.652 63.4602C218.652 55.6951 212.329 49.3247 204.517 49.3247L204.516 49.3247Z" fill="rgb(255,197,1)" fill-opacity="0.100000001" fill-rule="nonzero" />
		<path id="Vector" d="M41.8146 163.106L26.6571 163.106C18.892 163.106 12.5216 169.431 12.5216 177.242L12.5216 222.854C12.5216 225.411 14.613 227.505 17.1718 227.505L51.3024 227.505C53.9065 227.505 55.9526 225.412 55.9526 222.854L55.9526 177.242C55.951 169.429 49.628 163.106 41.8154 163.106L41.8146 163.106Z" fill="rgb(255,197,1)" fill-opacity="0.100000001" fill-rule="nonzero" />
		<path id="Vector" d="M182.509 25.6215L178.783 31.0541C177.334 33.1724 177.87 36.0648 179.991 37.5173C180.795 38.0688 181.708 38.332 182.615 38.332C184.096 38.332 185.553 37.6253 186.457 36.3114L196.511 21.6513C196.595 21.5282 196.607 21.3831 196.678 21.2549C196.902 20.8535 197.116 20.447 197.214 19.9916C197.334 19.4317 197.331 18.8616 197.243 18.305C197.236 18.2612 197.253 18.2224 197.245 18.1785C197.245 18.1769 197.243 18.1769 197.243 18.1769C197.133 17.5798 196.902 17.008 196.568 16.4903C196.233 15.9758 195.806 15.534 195.307 15.1916C195.305 15.1899 195.303 15.1865 195.302 15.1865L180.643 5.13087C178.537 3.68373 175.634 4.2184 174.182 6.33346C172.728 8.45183 173.264 11.3459 175.384 12.8002L180.758 16.4871L170.24 18.4217C158.461 20.5856 147.948 27.5784 141.395 37.6055L128.29 57.6511C121.974 67.3121 111.842 74.0685 100.495 76.1873L87.8668 78.5418C77.354 80.5033 68.1282 86.3625 61.8877 95.0486L22.8358 149.379C21.333 151.464 21.8103 154.37 23.8933 155.867C24.7147 156.458 25.6643 156.741 26.6037 156.741C28.0525 156.741 29.4743 156.07 30.3817 154.805L69.4337 100.474C74.2743 93.7463 81.4224 89.204 89.5721 87.6829L102.2 85.3284C116.027 82.7461 128.373 74.5137 136.07 62.7413L149.176 42.6923C154.344 34.7869 162.63 29.2735 171.916 27.5667L182.509 25.6215Z" fill="rgb(255,197,1)" fill-opacity="0.100000001" fill-rule="nonzero" />
	</g>
</svg>
