<svg viewBox="0 0 23.5846 23.5847" xmlns="http://www.w3.org/2000/svg" xmlns:xlink="http://www.w3.org/1999/xlink" width="23.584595" height="23.584717" fill="none">
	<rect id="maps-and-flags 1" width="23.584618" height="23.584618" x="0.000000" y="0.000000" fill="rgb(255,255,255)" fill-opacity="0" />
	<g id="Group">
		<g id="Group">
			<path id="Vector" d="M11.7932 0.00195312C7.08338 0.00195312 3.25171 3.83362 3.25171 8.54336C3.25171 14.3883 10.8955 22.969 11.2209 23.3314C11.5266 23.6719 12.0603 23.6713 12.3654 23.3314C12.6909 22.969 20.3346 14.3883 20.3346 8.54336C20.3345 3.83362 16.5029 0.00195312 11.7932 0.00195312ZM11.7932 12.8408C9.42355 12.8408 7.49579 10.913 7.49579 8.54336C7.49579 6.17375 9.4236 4.24599 11.7932 4.24599C14.1627 4.24599 16.0905 6.1738 16.0905 8.54341C16.0905 10.913 14.1627 12.8408 11.7932 12.8408Z" fill="rgb(255,197,1)" fill-rule="nonzero" />
		</g>
	</g>
</svg>
