<svg viewBox="0 0 22 22" xmlns="http://www.w3.org/2000/svg" xmlns:xlink="http://www.w3.org/1999/xlink" width="22.000000" height="22.000000" fill="none" customFrame="#000000">
	<path id="Vector" d="M11 0C4.925 0 0 4.92488 0 11C0 17.0751 4.92488 22 11 22C17.0751 22 22 17.0751 22 11C22 4.92488 17.0751 0 11 0ZM11 3.33333C11.3683 3.33333 11.6666 3.63188 11.6666 3.99994L11.6666 10.6142L16.8229 13.5935C17.1416 13.7776 17.2465 14.1808 17.0623 14.4998C16.8782 14.8186 16.475 14.9235 16.156 14.7393C14.3277 13.6846 12.4894 12.6239 10.6663 11.5727C10.4672 11.4574 10.3328 11.2463 10.3328 10.9998L10.3328 3.99979C10.3328 3.63148 10.6314 3.33318 10.9995 3.33318L11 3.33333Z" fill="rgb(255,197,1)" fill-rule="nonzero" />
</svg>
