<svg viewBox="0 0 23.6787 23.6787" xmlns="http://www.w3.org/2000/svg" xmlns:xlink="http://www.w3.org/1999/xlink" width="23.678711" height="23.678711" fill="none">
	<rect id="phone-call (3) 1" width="23.678711" height="23.678711" x="0.000000" y="0.000000" fill="rgb(255,255,255)" fill-opacity="0" />
	<g id="Group">
		<g id="Group">
			<path id="Vector" d="M23.0331 17.3768L19.7286 14.0724C18.5485 12.8922 16.5422 13.3643 16.0701 14.8985C15.7161 15.9607 14.5359 16.5507 13.4738 16.3147C11.1135 15.7246 7.92707 12.6562 7.33699 10.1779C6.98295 9.11568 7.69104 7.93552 8.75318 7.58152C10.2874 7.10946 10.7594 5.1032 9.57929 3.92304L6.27486 0.618605C5.33073 -0.207504 3.91454 -0.207504 3.08844 0.618605L0.84614 2.8609C-1.39615 5.22121 1.08217 11.476 6.6289 17.0228C12.1756 22.5695 18.4305 25.1659 20.7908 22.8055L23.0331 20.5632C23.8592 19.6191 23.8592 18.2029 23.0331 17.3768Z" fill="rgb(255,255,255)" fill-rule="nonzero" />
		</g>
	</g>
</svg>
