<svg viewBox="0 0 22.3751 22.3752" xmlns="http://www.w3.org/2000/svg" xmlns:xlink="http://www.w3.org/1999/xlink" width="22.375122" height="22.375244" fill="none">
	<rect id="email (1) 1" width="22.375149" height="22.375149" x="0.000000" y="0.000000" fill="rgb(255,197,1)" fill-opacity="0" />
	<g id="Group">
		<g id="Group">
			<path id="Vector" d="M14.4974 12.1167L12.6234 13.997C11.8635 14.7596 10.5264 14.776 9.75004 13.997L7.87599 12.1167L1.14526 18.8693C1.3958 18.9851 1.67204 19.0543 1.96571 19.0543L20.4077 19.0543C20.7014 19.0543 20.9776 18.9852 21.228 18.8693L14.4974 12.1167Z" fill="rgb(255,197,1)" fill-rule="nonzero" />
		</g>
	</g>
	<g id="Group">
		<g id="Group">
			<path id="Vector" d="M20.4076 3.32031L1.96563 3.32031C1.67195 3.32031 1.39572 3.38945 1.14526 3.5053L8.33752 10.7214C8.338 10.7219 8.33857 10.722 8.33905 10.7225C8.33953 10.7229 8.33962 10.7236 8.33962 10.7236L10.6782 13.0699C10.9266 13.3183 11.4467 13.3183 11.6951 13.0699L14.0333 10.724C14.0333 10.724 14.0338 10.7229 14.0343 10.7225C14.0343 10.7225 14.0354 10.7219 14.0358 10.7214L21.2279 3.50526C20.9775 3.38936 20.7013 3.32031 20.4076 3.32031Z" fill="rgb(255,197,1)" fill-rule="nonzero" />
		</g>
	</g>
	<g id="Group">
		<g id="Group">
			<path id="Vector" d="M0.207934 4.42188C0.0783159 4.684 -0.0012207 4.97496 -0.0012207 5.28664L-0.0012207 17.086C-0.0012207 17.3977 0.0782286 17.6887 0.207891 17.9508L6.95028 11.1866L0.207934 4.42188Z" fill="rgb(255,197,1)" fill-rule="nonzero" />
		</g>
	</g>
	<g id="Group">
		<g id="Group">
			<path id="Vector" d="M22.1652 4.42188L15.4229 11.1866L22.1652 17.951C22.2948 17.6889 22.3743 17.3979 22.3743 17.0861L22.3743 5.28673C22.3743 4.97496 22.2948 4.684 22.1652 4.42188Z" fill="rgb(255,197,1)" fill-rule="nonzero" />
		</g>
	</g>
</svg>
