<svg viewBox="0 0 20 20" xmlns="http://www.w3.org/2000/svg" xmlns:xlink="http://www.w3.org/1999/xlink" width="20.000000" height="20.000000" fill="none">
	<rect id="callback 1" width="20.000000" height="20.000000" x="0.000000" y="0.000000" fill="rgb(255,255,255)" fill-opacity="0" />
	<g id="Group">
		<g id="Group">
			<path id="Vector" d="M12.5579 18.9637C11.9674 18.9637 11.3844 18.7952 10.8857 18.4761C6.54331 15.6968 2.91579 11.8528 0.395448 7.35972C-0.285023 6.1466 -0.0721436 4.61121 0.913162 3.62594L2.84405 1.69505C3.60217 0.936936 4.83566 0.936936 5.59377 1.69505L7.29552 3.3968C8.05364 4.15488 8.05364 5.38841 7.29552 6.14648L6.28938 7.15263C7.73324 9.1707 9.45301 10.9607 11.4111 12.4837L12.522 11.3729C13.2801 10.6148 14.5135 10.6148 15.2716 11.3729L16.9758 13.0771C17.732 13.8333 17.7336 15.0653 16.9794 15.8233L14.7727 18.0412C14.2729 18.5436 13.6102 18.8642 12.9067 18.9441C12.7905 18.9572 12.674 18.9637 12.5579 18.9637Z" fill="rgb(255,197,1)" fill-rule="nonzero" />
		</g>
		<g id="Group">
			<path id="Vector" d="M17.927 2.00858L11.8695 2.00858C12.0274 1.82495 12.061 1.55495 11.9331 1.33335C11.7711 1.05283 11.4125 0.956775 11.132 1.11871L9.4546 2.08713C9.27315 2.19187 9.16138 2.38547 9.16138 2.59499C9.16138 2.80451 9.27315 2.99811 9.4546 3.10285L11.132 4.07127C11.2243 4.12459 11.3252 4.14993 11.4247 4.14993C11.6273 4.14993 11.8245 4.04476 11.9331 3.85663C12.061 3.63503 12.0273 3.36507 11.8695 3.18143L17.927 3.18143C18.423 3.18143 18.8264 3.58487 18.8264 4.08081C18.8264 4.57674 18.423 4.98018 17.927 4.98018L13.1157 4.98018C12.7918 4.98018 12.5293 5.24275 12.5293 5.56662C12.5293 5.8905 12.7918 6.15307 13.1157 6.15307L17.927 6.15307C19.0697 6.15307 19.9993 5.22347 19.9993 4.08081C19.9993 2.93818 19.0697 2.00858 17.927 2.00858Z" fill="rgb(255,197,1)" fill-rule="nonzero" />
		</g>
	</g>
</svg>
