<svg viewBox="0 0 187 59" xmlns="http://www.w3.org/2000/svg" xmlns:xlink="http://www.w3.org/1999/xlink" width="187.000000" height="59.000000" fill="none" customFrame="#000000">
	<defs>
		<filter id="pixso_custom_mask_type_alpha">
			<feColorMatrix type="matrix" values="0 0 0 0 1 0 0 0 0 1 0 0 0 0 1 0 0 0 1 0 " />
		</filter>
	</defs>
	<mask id="mask_1" width="133.057693" height="17.980770" x="53.942383" y="29.967773" maskUnits="userSpaceOnUse">
		<g filter="url(#pixso_custom_mask_type_alpha)">
			<rect id="Rectangle 155" width="133.057693" height="17.980770" x="53.942383" y="29.967773" fill="rgb(255,197,1)" />
		</g>
	</mask>
	<g id="Group 724">
		<g id="Group 709">
			<g id="Group">
				<path id="Vector" d="M0.0654297 28.5271L18.4 28.5271L18.4 40.8863L0.0654297 40.8863L0.0654297 28.5271Z" fill="rgb(255,255,255)" fill-rule="nonzero" />
				<path id="Vector" d="M19.8069 28.5271L38.1414 28.5271L38.1414 40.8863L19.8069 40.8863L19.8069 28.5271Z" fill="rgb(255,255,255)" fill-rule="nonzero" />
				<path id="Vector" d="M0.0654297 14.4481L18.4 14.4481L18.4 26.7995L0.0654297 26.7995L0.0654297 14.4481Z" fill="rgb(255,255,255)" fill-rule="nonzero" />
				<path id="Vector" d="M19.8069 14.4481L38.1414 14.4481L38.1414 26.7995L19.8069 26.7995L19.8069 14.4481Z" fill="rgb(255,255,255)" fill-rule="nonzero" />
				<path id="Vector" d="M0 42.0951L38.3575 42.0951L38.3575 43.831L0 43.831L0 42.0951Z" fill="rgb(255,197,1)" fill-rule="nonzero" />
				<path id="Vector" d="M0.0327148 43.7832L5.86434 43.7832L5.86434 46.7511L0.0327148 46.7511L0.0327148 43.7832Z" fill="rgb(255,197,1)" fill-rule="nonzero" />
				<path id="Vector" d="M32.5105 43.7832L38.3584 43.7832L38.3584 46.7511L32.5105 46.7511L32.5105 43.7832Z" fill="rgb(255,197,1)" fill-rule="nonzero" />
				<path id="Vector" d="M17.4692 43.7832L21.0131 43.7832L21.0131 46.7511L17.4692 46.7511L17.4692 43.7832Z" fill="rgb(255,197,1)" fill-rule="nonzero" />
			</g>
			<path id="МОНЕКС" d="M56.2737 47.3601L56.8269 15.354L62.8725 15.354L67.4165 37.5211L72.1582 15.354L78.0062 15.354L78.5989 47.3601L74.2524 47.3601L73.7782 25.1139L69.2342 47.3601L65.7175 47.3601L61.0944 25.0348L60.6597 47.3601L56.2737 47.3601ZM92.0184 47.7947C89.753 47.7947 87.9485 47.3732 86.6051 46.5303C85.2616 45.6873 84.3001 44.4756 83.7206 42.895C83.141 41.3145 82.8513 39.4441 82.8513 37.2841L82.8513 25.3114C82.8513 23.1513 83.141 21.3074 83.7206 19.7795C84.3001 18.2253 85.2616 17.0399 86.6051 16.2233C87.9485 15.4067 89.753 14.9984 92.0184 14.9984C94.3366 14.9984 96.1542 15.4067 97.4713 16.2233C98.8148 17.0399 99.7763 18.2253 100.356 19.7795C100.962 21.3074 101.265 23.1513 101.265 25.3114L101.265 37.3236C101.265 39.4573 100.962 41.3145 100.356 42.895C99.7763 44.4492 98.8148 45.661 97.4713 46.5303C96.1542 47.3732 94.3366 47.7947 92.0184 47.7947ZM92.0184 43.4877C92.9931 43.4877 93.7043 43.277 94.1522 42.8555C94.6263 42.434 94.9424 41.8545 95.1005 41.1169C95.2585 40.3793 95.3376 39.5759 95.3376 38.7066L95.3376 23.968C95.3376 23.0723 95.2585 22.2689 95.1005 21.5576C94.9424 20.8464 94.6263 20.2932 94.1522 19.8981C93.7043 19.4766 92.9931 19.2658 92.0184 19.2658C91.0964 19.2658 90.3984 19.4766 89.9242 19.8981C89.45 20.2932 89.1339 20.8464 88.9759 21.5576C88.8178 22.2689 88.7388 23.0723 88.7388 23.968L88.7388 38.7066C88.7388 39.5759 88.8046 40.3793 88.9364 41.1169C89.0944 41.8545 89.4105 42.434 89.8847 42.8555C90.3588 43.277 91.0701 43.4877 92.0184 43.4877ZM105.669 47.3601L105.669 15.354L111.478 15.354L111.478 28.7491L117.998 28.7491L117.998 15.354L123.846 15.354L123.846 47.3601L117.998 47.3601L117.998 32.8981L111.478 32.8981L111.478 47.3601L105.669 47.3601ZM128.743 47.3601L128.743 15.354L142.178 15.354L142.178 19.4634L134.591 19.4634L134.591 28.6701L140.558 28.6701L140.558 32.74L134.591 32.74L134.591 43.3297L142.257 43.3297L142.257 47.3601L128.743 47.3601ZM145.723 47.3601L145.723 15.354L151.532 15.354L151.532 28.7886L152.717 28.7886L157.894 15.354L163.702 15.354L157.617 30.4482L164.176 47.3601L158.249 47.3601L152.717 32.6215L151.532 32.6215L151.532 47.3601L145.723 47.3601ZM175.636 47.7947C173.291 47.7947 171.447 47.3337 170.104 46.4117C168.787 45.4897 167.865 44.2385 167.338 42.6579C166.811 41.051 166.548 39.2071 166.548 37.126L166.548 25.7066C166.548 23.5201 166.811 21.6235 167.338 20.0166C167.865 18.4097 168.787 17.1716 170.104 16.3023C171.447 15.433 173.291 14.9984 175.636 14.9984C177.849 14.9984 179.574 15.3803 180.812 16.1443C182.077 16.8818 182.972 17.9487 183.499 19.3449C184.026 20.741 184.289 22.3611 184.289 24.205L184.289 26.892L178.678 26.892L178.678 24.126C178.678 23.2304 178.626 22.4138 178.52 21.6762C178.441 20.9386 178.191 20.3591 177.77 19.9376C177.374 19.4897 176.676 19.2658 175.675 19.2658C174.674 19.2658 173.937 19.5029 173.463 19.9771C173.015 20.4249 172.725 21.044 172.593 21.8342C172.462 22.5982 172.396 23.4675 172.396 24.4421L172.396 38.3509C172.396 39.51 172.488 40.4715 172.672 41.2354C172.857 41.973 173.186 42.5394 173.66 42.9345C174.161 43.3033 174.832 43.4877 175.675 43.4877C176.65 43.4877 177.335 43.2638 177.73 42.816C178.152 42.3418 178.415 41.7228 178.52 40.9588C178.626 40.1949 178.678 39.3388 178.678 38.3904L178.678 35.506L184.289 35.506L184.289 38.0743C184.289 39.971 184.039 41.6569 183.539 43.1321C183.038 44.5809 182.156 45.7268 180.891 46.5698C179.653 47.3864 177.901 47.7947 175.636 47.7947Z" fill="rgb(255,255,255)" fill-rule="nonzero" />
		</g>
		<g id="Mask group" mask="url(#mask_1)">
			<path id="МОНЕКС" d="M56.2734 47.3601L56.8266 15.354L62.8722 15.354L67.4163 37.5211L72.1579 15.354L78.006 15.354L78.5987 47.3601L74.2522 47.3601L73.778 25.1139L69.2339 47.3601L65.7172 47.3601L61.0941 25.0348L60.6595 47.3601L56.2734 47.3601ZM92.0182 47.7947C89.7527 47.7947 87.9483 47.3732 86.6048 46.5303C85.2613 45.6873 84.2998 44.4756 83.7203 42.895C83.1408 41.3145 82.851 39.4441 82.851 37.2841L82.851 25.3114C82.851 23.1513 83.1408 21.3074 83.7203 19.7795C84.2998 18.2253 85.2613 17.0399 86.6048 16.2233C87.9483 15.4067 89.7527 14.9984 92.0182 14.9984C94.3363 14.9984 96.1539 15.4067 97.4711 16.2233C98.8145 17.0399 99.776 18.2253 100.356 19.7795C100.961 21.3074 101.264 23.1513 101.264 25.3114L101.264 37.3236C101.264 39.4573 100.961 41.3145 100.356 42.895C99.776 44.4492 98.8145 45.661 97.4711 46.5303C96.1539 47.3732 94.3363 47.7947 92.0182 47.7947ZM92.0182 43.4877C92.9929 43.4877 93.7041 43.277 94.1519 42.8555C94.6261 42.434 94.9422 41.8545 95.1002 41.1169C95.2583 40.3793 95.3373 39.5759 95.3373 38.7066L95.3373 23.968C95.3373 23.0723 95.2583 22.2689 95.1002 21.5576C94.9422 20.8464 94.6261 20.2932 94.1519 19.8981C93.7041 19.4766 92.9929 19.2658 92.0182 19.2658C91.0962 19.2658 90.3981 19.4766 89.924 19.8981C89.4498 20.2932 89.1337 20.8464 88.9756 21.5576C88.8176 22.2689 88.7385 23.0723 88.7385 23.968L88.7385 38.7066C88.7385 39.5759 88.8044 40.3793 88.9361 41.1169C89.0942 41.8545 89.4103 42.434 89.8844 42.8555C90.3586 43.277 91.0699 43.4877 92.0182 43.4877ZM105.669 47.3601L105.669 15.354L111.478 15.354L111.478 28.7491L117.997 28.7491L117.997 15.354L123.846 15.354L123.846 47.3601L117.997 47.3601L117.997 32.8981L111.478 32.8981L111.478 47.3601L105.669 47.3601ZM128.743 47.3601L128.743 15.354L142.177 15.354L142.177 19.4634L134.591 19.4634L134.591 28.6701L140.557 28.6701L140.557 32.74L134.591 32.74L134.591 43.3297L142.256 43.3297L142.256 47.3601L128.743 47.3601ZM145.723 47.3601L145.723 15.354L151.532 15.354L151.532 28.7886L152.717 28.7886L157.893 15.354L163.702 15.354L157.617 30.4482L164.176 47.3601L158.249 47.3601L152.717 32.6215L151.532 32.6215L151.532 47.3601L145.723 47.3601ZM175.636 47.7947C173.291 47.7947 171.447 47.3337 170.104 46.4117C168.787 45.4897 167.865 44.2385 167.338 42.6579C166.811 41.051 166.547 39.2071 166.547 37.126L166.547 25.7066C166.547 23.5201 166.811 21.6235 167.338 20.0166C167.865 18.4097 168.787 17.1716 170.104 16.3023C171.447 15.433 173.291 14.9984 175.636 14.9984C177.848 14.9984 179.574 15.3803 180.812 16.1443C182.076 16.8818 182.972 17.9487 183.499 19.3449C184.026 20.741 184.289 22.3611 184.289 24.205L184.289 26.892L178.678 26.892L178.678 24.126C178.678 23.2304 178.625 22.4138 178.52 21.6762C178.441 20.9386 178.191 20.3591 177.769 19.9376C177.374 19.4897 176.676 19.2658 175.675 19.2658C174.674 19.2658 173.936 19.5029 173.462 19.9771C173.014 20.4249 172.725 21.044 172.593 21.8342C172.461 22.5982 172.395 23.4675 172.395 24.4421L172.395 38.3509C172.395 39.51 172.488 40.4715 172.672 41.2354C172.856 41.973 173.186 42.5394 173.66 42.9345C174.16 43.3033 174.832 43.4877 175.675 43.4877C176.65 43.4877 177.335 43.2638 177.73 42.816C178.151 42.3418 178.415 41.7228 178.52 40.9588C178.625 40.1949 178.678 39.3388 178.678 38.3904L178.678 35.506L184.289 35.506L184.289 38.0743C184.289 39.971 184.039 41.6569 183.538 43.1321C183.038 44.5809 182.155 45.7268 180.891 46.5698C179.653 47.3864 177.901 47.7947 175.636 47.7947Z" fill="rgb(255,197,1)" fill-rule="nonzero" />
		</g>
	</g>
</svg>
