<svg viewBox="0 0 18 18" xmlns="http://www.w3.org/2000/svg" xmlns:xlink="http://www.w3.org/1999/xlink" width="18.000000" height="18.000000" fill="none" customFrame="#000000">
	<defs>
		<clipPath id="clipPath_0">
			<rect width="18.000000" height="18.000000" x="0.000000" y="0.000000" fill="rgb(255,255,255)" />
		</clipPath>
	</defs>
	<g id="Group 669">
		<g id="email (1) 2" clip-path="url(#clipPath_0)" customFrame="url(#clipPath_0)">
			<rect id="email (1) 2" width="18.000000" height="18.000000" x="0.000000" y="0.000000" fill="rgb(255,255,255)" fill-opacity="0" />
			<g id="Group">
				<g id="Group">
					<path id="Vector" d="M11.6636 9.74756L10.1561 11.2602C9.54478 11.8737 8.46914 11.8869 7.84459 11.2602L6.33699 9.74756L0.922363 15.1798C1.12391 15.273 1.34614 15.3286 1.58239 15.3286L16.4183 15.3286C16.6546 15.3286 16.8767 15.273 17.0782 15.1798L11.6636 9.74756Z" fill="rgb(255,255,255)" fill-rule="nonzero" />
				</g>
			</g>
			<g id="Group">
				<g id="Group">
					<path id="Vector" d="M16.4183 2.6709L1.58232 2.6709C1.34607 2.6709 1.12384 2.72652 0.922363 2.81971L6.70827 8.62482C6.70866 8.62521 6.70912 8.62528 6.7095 8.62566C6.70989 8.62605 6.70996 8.62658 6.70996 8.62658L8.59128 10.5141C8.79111 10.7139 9.20954 10.7139 9.40936 10.5141L11.2903 8.62689C11.2903 8.62689 11.2908 8.62605 11.2911 8.62566C11.2911 8.62566 11.292 8.62521 11.2924 8.62482L17.0781 2.81968C16.8767 2.72645 16.6545 2.6709 16.4183 2.6709Z" fill="rgb(255,255,255)" fill-rule="nonzero" />
				</g>
			</g>
			<g id="Group">
				<g id="Group">
					<path id="Vector" d="M0.16777 3.55737C0.0634961 3.76824 -0.000488281 4.00231 -0.000488281 4.25305L-0.000488281 13.7452C-0.000488281 13.996 0.0634258 14.23 0.167734 14.4409L5.59175 8.99931L0.16777 3.55737Z" fill="rgb(255,255,255)" fill-rule="nonzero" />
				</g>
			</g>
			<g id="Group">
				<g id="Group">
					<path id="Vector" d="M17.8309 3.55737L12.407 8.99938L17.8309 14.441C17.9352 14.2302 17.9992 13.9961 17.9992 13.7453L17.9992 4.25312C17.9992 4.00231 17.9352 3.76824 17.8309 3.55737Z" fill="rgb(255,255,255)" fill-rule="nonzero" />
				</g>
			</g>
		</g>
	</g>
</svg>
