<svg viewBox="0 0 25.6349 25.6349" xmlns="http://www.w3.org/2000/svg" xmlns:xlink="http://www.w3.org/1999/xlink" width="25.634888" height="25.634888" fill="none" customFrame="#000000">
	<defs>
		<clipPath id="clipPath_1">
			<rect width="25.634920" height="25.634920" x="0.000000" y="0.000000" fill="rgb(255,255,255)" />
		</clipPath>
	</defs>
	<g id="Group 662">
		<g id="phone-call (3) 1" clip-path="url(#clipPath_1)" customFrame="url(#clipPath_1)">
			<rect id="phone-call (3) 1" width="25.634920" height="25.634920" x="0.000000" y="0.000000" fill="rgb(255,255,255)" fill-opacity="0" />
			<g id="Group">
				<g id="Group">
					<path id="Vector" d="M24.9367 18.8121L21.3592 15.2347C20.0816 13.957 17.9096 14.4681 17.3985 16.129C17.0152 17.279 15.7376 17.9178 14.5877 17.6622C12.0324 17.0234 8.58269 13.7015 7.94387 11.0184C7.56057 9.86848 8.32716 8.59083 9.47705 8.20758C11.138 7.69652 11.6491 5.52451 10.3714 4.24686L6.79398 0.669425C5.77186 -0.224932 4.23867 -0.224932 3.34431 0.669425L0.916773 3.09697C-1.51077 5.65228 1.1723 12.4238 7.17728 18.4288C13.1822 24.4338 19.9538 27.2447 22.5091 24.6893L24.9367 22.2618C25.8311 21.2396 25.8311 19.7065 24.9367 18.8121Z" fill="rgb(255,255,255)" fill-rule="nonzero" />
				</g>
			</g>
		</g>
	</g>
</svg>
